<svg xmlns="http://www.w3.org/2000/svg" width="800" height="400" viewBox="0 0 800 400">
  <!-- Background -->
  <rect width="800" height="400" fill="#ADD8E6" />

  <!-- Snow ground -->
  <rect y="300" width="800" height="100" fill="#FFFFFF" />

  <!-- Polar Bear Body -->
  <ellipse cx="400" cy="250" rx="120" ry="60" fill="#FFFFFF" stroke="#D3D3D3" stroke-width="2" />

  <!-- Polar Bear Head -->
  <circle cx="320" cy="230" r="40" fill="#FFFFFF" stroke="#D3D3D3" stroke-width="2" />

  <!-- Polar Bear Ears -->
  <circle cx="300" cy="200" r="15" fill="#FFFFFF" stroke="#D3D3D3" stroke-width="2" />
  <circle cx="340" cy="200" r="15" fill="#FFFFFF" stroke="#D3D3D3" stroke-width="2" />

  <!-- Eyes -->
  <circle cx="310" cy="230" r="5" fill="black" />
  <circle cx="330" cy="230" r="5" fill="black" />

  <!-- Nose -->
  <circle cx="320" cy="250" r="7" fill="black" />

  <!-- Mouth -->
  <path d="M313,255 Q320,260 327,255" stroke="black" stroke-width="2" fill="none" />

  <!-- Legs -->
  <ellipse cx="350" cy="300" rx="20" ry="10" fill="#FFFFFF" stroke="#D3D3D3" stroke-width="2" />
  <ellipse cx="450" cy="300" rx="20" ry="10" fill="#FFFFFF" stroke="#D3D3D3" stroke-width="2" />

  <!-- Snowflakes -->
  <circle cx="100" cy="50" r="3" fill="white" />
  <circle cx="200" cy="100" r="3" fill="white" />
  <circle cx="400" cy="30" r="3" fill="white" />
  <circle cx="600" cy="70" r="3" fill="white" />
  <circle cx="700" cy="50" r="3" fill="white" />
  <circle cx="500" cy="150" r="3" fill="white" />
  <circle cx="300" cy="80" r="3" fill="white" />
</svg>
